<svg width="12" height="12" viewBox="0 0 12 12" fill="none" xmlns="http://www.w3.org/2000/svg">
<path fill-rule="evenodd" clip-rule="evenodd" d="M1.9759 3.93607C1.67136 4.54262 1.49993 5.22755 1.49993 5.95251C1.49993 8.43781 3.51466 10.4525 5.99997 10.4525C8.48527 10.4525 10.5 8.43781 10.5 5.95251C10.5 3.73972 8.90287 1.89996 6.79848 1.52311L6.79848 0.00514557C9.73471 0.395611 12 2.90952 12 5.95251C12 9.26624 9.31369 11.9525 5.99997 11.9525C2.68624 11.9525 -6.93834e-05 9.26624 -6.90937e-05 5.95251C-6.90064e-05 4.9543 0.243693 4.01302 0.674938 3.18496L1.9759 3.93607Z" fill="#6F6F6F"/>
<path d="M5.81623 6.55197C6.10912 6.84486 6.58399 6.84486 6.87689 6.55197C7.16978 6.25907 7.16978 5.7842 6.87689 5.49131L5.81623 6.55197ZM2.93936 1.55378L2.40903 1.02345L1.34837 2.08411L1.8787 2.61444L2.93936 1.55378ZM6.87689 5.49131L2.93936 1.55378L1.8787 2.61444L5.81623 6.55197L6.87689 5.49131Z" fill="#6F6F6F"/>
<path d="M6.5 0.5V2.5" stroke="#6F6F6F" stroke-miterlimit="6.07152" stroke-linecap="square"/>
</svg>
